<?xml version="1.0" encoding="utf-8"?>
<!-- Generator: Adobe Illustrator 21.1.0, SVG Export Plug-In . SVG Version: 6.00 Build 0)  -->
<svg version="1.1" id="Capa_1" xmlns="http://www.w3.org/2000/svg" xmlns:xlink="http://www.w3.org/1999/xlink" x="0px" y="0px"
	 viewBox="0 0 492.7 492.7" style="enable-background:new 0 0 492.7 492.7;" xml:space="preserve">
<g>
	<g id="Icons_18_">
		<path d="M98,219.9c0-13.7-11.1-24.8-24.8-24.8c-9,0-16.8,4.8-21.2,11.9c-4.4-7.1-12.2-11.9-21.2-11.9C17.1,195.1,6,206.2,6,219.9
			c0,7.5,3.3,14.2,8.5,18.7l35.2,35.2c0.6,0.6,1.4,0.9,2.3,0.9c0.9,0,1.7-0.3,2.3-0.9l35.2-35.2C94.7,234.1,98,227.4,98,219.9z"/>
	</g>
</g>
<g>
	<g id="Icons_1_">
		<path d="M196,219.9c0-13.7-11.1-24.8-24.8-24.8c-9,0-16.8,4.8-21.2,11.9c-4.4-7.1-12.2-11.9-21.2-11.9
			c-13.7,0-24.8,11.1-24.8,24.8c0,7.5,3.3,14.2,8.5,18.7l35.2,35.2c0.6,0.6,1.4,0.9,2.3,0.9c0.9,0,1.7-0.3,2.3-0.9l35.2-35.2
			C192.7,234.1,196,227.4,196,219.9z"/>
	</g>
</g>
<g>
	<g id="Icons_2_">
		<path d="M294,219.9c0-13.7-11.1-24.8-24.8-24.8c-9,0-16.8,4.8-21.2,11.9c-4.4-7.1-12.2-11.9-21.2-11.9
			c-13.7,0-24.8,11.1-24.8,24.8c0,7.5,3.3,14.2,8.5,18.7l35.2,35.2c0.6,0.6,1.4,0.9,2.3,0.9c0.9,0,1.7-0.3,2.3-0.9l35.2-35.2
			C290.7,234.1,294,227.4,294,219.9z"/>
	</g>
</g>
<g>
	<path d="M383.3,202.5c-4.7-4.7-11-7.3-17.7-7.3s-13,2.6-17.8,7.4l-2.5,2.5l-2.5-2.5c-4.7-4.7-11.1-7.4-17.8-7.4
		c-6.7,0-13,2.6-17.7,7.3c-4.7,4.7-7.4,11.1-7.3,17.8c0,6.7,2.6,13,7.4,17.7l36.1,36.1c0.5,0.5,1.2,0.8,1.8,0.8
		c0.7,0,1.3-0.2,1.8-0.7l36.2-36c4.7-4.7,7.4-11.1,7.4-17.8C390.7,213.5,388.1,207.2,383.3,202.5z M379.6,234.3l-34.3,34.2
		L311,234.3c-3.8-3.8-5.8-8.8-5.8-14.1s2.1-10.3,5.8-14.1c3.7-3.7,8.7-5.8,14-5.8c5.3,0,10.3,2.1,14.1,5.8l4.3,4.3c1,1,2.7,1,3.7,0
		l4.3-4.3c3.8-3.8,8.8-5.8,14.1-5.8s10.3,2.1,14.1,5.8c3.8,3.8,5.8,8.8,5.8,14.1C385.5,225.6,383.4,230.5,379.6,234.3z"/>
</g>
<g>
	<path d="M480,202.5c-4.7-4.7-11-7.3-17.7-7.3s-13,2.6-17.8,7.4L442,205l-2.5-2.5c-4.7-4.7-11.1-7.4-17.8-7.4
		c-6.7,0-13,2.6-17.7,7.3c-4.7,4.7-7.4,11.1-7.3,17.8c0,6.7,2.6,13,7.4,17.7l36.1,36.1c0.5,0.5,1.2,0.8,1.8,0.8s1.3-0.2,1.8-0.7
		l36.2-36c4.7-4.7,7.4-11.1,7.4-17.8C487.3,213.5,484.7,207.2,480,202.5z M476.3,234.3l-34.3,34.2l-34.3-34.3
		c-3.8-3.8-5.8-8.8-5.8-14.1s2.1-10.3,5.8-14.1c3.7-3.7,8.7-5.8,14-5.8c5.3,0,10.3,2.1,14.1,5.8l4.3,4.3c1,1,2.7,1,3.7,0l4.3-4.3
		c3.8-3.8,8.8-5.8,14.1-5.8s10.3,2.1,14.1,5.8c3.8,3.8,5.8,8.8,5.8,14.1C482.1,225.6,480.1,230.5,476.3,234.3z"/>
</g>
</svg>
